<?xml version="1.0" encoding="UTF-8"?>
<svg viewBox="0 0 223.45729 355.23779" xmlns="http://www.w3.org/2000/svg" xmlns:xlink="http://www.w3.org/1999/xlink">
 <g transform="translate(-335.6 -444.86)">
  <path d="m360.81 542.67c21.968 36.59 64.031 95.969 64.031 95.969s4.7414 9.4375 21.938 9.4375 21.969-9.4375 21.969-9.4375l63.656-95.969h-171.59z" fill="#749597"/>
  <path d="m410.03 522.44 32.986 83.59c0.37124 0.91733 0.59299 1.6924-0.32469 2.0636s-1.2969-0.33984-1.6677-1.2573l-34.445-82.786z" fill="#a38a4c"/>
  <path d="m407.82 523.48-1.2366 0.57526 34.446 82.787c0.3708 0.91746 0.7493 1.6275 1.6663 1.2563 0.85864-0.34736 0.71943-1.0492 0.39417-1.8893-0.72946 0.14309-1.0698-0.51322-1.4027-1.337l-33.868-81.392z" fill="#715e30"/>
  <path d="m433.52 533.52c1.0064-1.3335 2.0166-2.6165 2.2963-4.9356 0.33471-2.7834-0.0515-6.3532-1.2403-10.052-1.3235-4.1177-3.3628-7.5254-5.4982-9.5521-1.1792-1.1194-2.3354-1.492-3.522-1.9774-5.9498-2.6726-13.586-3.1204-21.164-0.68486-13.901 4.4681-22.329 16.928-18.825 27.831s17.614 16.119 31.515 11.65c7.3042-2.348 13.093-6.904 16.438-12.28z" fill="#817f45"/>
  <path transform="matrix(.29634 -.09525 .09525 .29634 369.03 483.71)" d="m159 170.81a15.525 35.415 0 1 0 -31.05 0 15.525 35.415 0 1 0 31.05 0" fill="#be453e" fill-opacity=".655"/>
  <path d="m407.77 514.35c-2.1124 1.6288-3.3634 2.2503-6.0333 2.9309" fill="#ae7e67" stroke="#3a3e24" stroke-linecap="round" stroke-linejoin="round" stroke-width="3.4028"/>
  <path d="m423.35 509.48c-2.0571 1.7449-2.3362 7.056-0.50535 12.752 2.0596 6.4079 6.016 10.875 8.825 9.9717 1.4216-0.45691 2.2653-2.2015 2.4989-4.6428-0.25771 0.21909-0.53862 0.39089-0.85164 0.4915-2.809 0.90289-6.7654-3.5638-8.825-9.9717-1.0195-3.1719-1.373-6.2157-1.1419-8.6008z" fill="#3a3e24"/>
  <path d="m393.09 517.42c1.4261-1.5572 3.023-2.958 4.7527-4.169 2.5874-1.8116 5.4736-3.1944 8.505-4.0812m5.04-0.99745c2.8201-0.30118 5.6844-0.19009 8.4716 0.3352" fill="none" stroke="#fff" stroke-linecap="round" stroke-opacity=".8187" stroke-width="2.2527"/>
  <path d="m403.11 516.9-25.034-60.15c-0.37112-0.91735 0.73556-2.2302 1.6534-2.6011s2.6249-0.1974 2.9963 0.71985l23.835 60.421z" fill="#a38a4c"/>
  <path d="m378.76 454.83c-0.54414 0.56251-0.92019 1.3216-0.68032 1.9145l25.032 60.15 3.4528-1.6099-0.16105-0.40963-2.2424 1.0452z" fill="#715e30"/>
  <path d="m500.65 786.24v-15.193l-42.71-8.1558v-75.662c0.12745-10.245 1.7222-18.245 4.9271-27.906 1.2259-3.6954 4.5493-8.2326 6.7013-11.51 26.795-40.812 79.429-120.59 79.429-120.59 1.8738-2.9235 0.0494-6.2723-3.423-6.2723h-197.94c-3.4725 0-5.2969 3.3488-3.423 6.2723 0 0 52.634 79.776 79.429 120.59 2.1519 3.2777 5.4754 7.8149 6.7013 11.51 3.2048 9.661 4.7996 17.66 4.927 27.906v75.662l-42.71 8.1558v15.193z" fill="#7285c1" fill-opacity=".5789" stroke="#d1d8f0" stroke-width="3.9744"/>
  <path d="m381.91 535.83 26.46 40.113h-13.516l-26.562-40.113zm30.477 46.207 32.141 48.745h-13.603l-32.054-48.745z" fill="#fff" fill-opacity=".9298"/>
 </g>
</svg>
